<svg width="3.3399999in" height="2.22667in" viewBox="0 0 1002 668" version="1.1" id="svg10" sodipodi:docname="SPQR.svg" xml:space="preserve" inkscape:export-filename="SPQR3.svg" inkscape:export-xdpi="96" inkscape:export-ydpi="96" xmlns:inkscape="http://www.inkscape.org/namespaces/inkscape" xmlns:sodipodi="http://sodipodi.sourceforge.net/DTD/sodipodi-0.dtd" xmlns="http://www.w3.org/2000/svg" xmlns:svg="http://www.w3.org/2000/svg"><defs id="defs14" /><sodipodi:namedview id="namedview12" pagecolor="#ffffff" bordercolor="#000000" borderopacity="0.25" inkscape:showpageshadow="2" inkscape:pageopacity="0.0" inkscape:pagecheckerboard="0" inkscape:deskcolor="#d1d1d1" inkscape:document-units="in" showgrid="false" inkscape:zoom="3.8080032" inkscape:cx="160.97675" inkscape:cy="106.88016" inkscape:window-width="1920" inkscape:window-height="1017" inkscape:window-x="1912" inkscape:window-y="-8" inkscape:window-maximized="1" inkscape:current-layer="svg10" /><path id="Auswahl-3" fill="none" stroke="#000000" stroke-width="1" d="m 0.5,0.49949137 c 0,0 1002,0 1002,0 0,0 0,667.99999863 0,667.99999863 0,0 -1002,0 -1002,0 0,0 0,-667.99999863 0,-667.99999863 z" style="fill:#f789a2;fill-opacity:1;stroke:#f789a2;stroke-width:0.9;stroke-dasharray:none;stroke-opacity:1" /><path id="Auswahl" fill="none" stroke="#000000" stroke-width="1" d="m 89.023737,113.45342 c 0,0 12.000003,-8.57 12.000003,-8.57 0,0 16,-10.419998 16,-10.419998 17.27,-10.11 34.93,-17.08 54,-22.99 33.45,-10.35 78.97,-13.97 114,-14.02 0,0 17,-1 17,-1 0,0 68,0 68,0 0,0 12,0.96 12,0.96 0,0 15,0 15,0 0,0 14,1.04 14,1.04 0,0 30,1.91 30,1.91 27.13,1.87 54.07,4.85 81,8.82 40.08,5.9 97.1,16.93 134,32.549998 0,0 20,8.98 20,8.98 33.12,17.08 78.47,52.72 111,74.41 18.72,12.47 47.01,32.79 70,33.32 0,0 19,-0.99 19,-0.99 0,0 26,-1.91 26,-1.91 0,0 68,-3.09 68,-3.09 4.18,0.02 19.21,0.56 20.55,5.22 0.66,2.28 -1.69,5.13 -3.02,6.78 -3.73,4.66 -10.78,10.5 -15.53,14.39 -13.02,10.65 -32.54,23.57 -48,30.18 0,0 -18,6.49 -18,6.49 -7.39,2.84 -15.42,8.09 -15.65,16.94 -0.24,9.69 8.02,19.19 12.73,27 9.97,16.56 11.88,37.45 36.92,38.91 11.43,0.66 22.38,-6.69 28.55,-2.06 6.19,4.33 1.63,14.59 0,20.15 0,0 -6.77,20.91 -6.77,20.91 -3.97,6.27 -18.65,13.41 -25.78,15.73 0,0 -37,6.01 -37,6.01 -32.71,7.5 -42.13,8.34 -75,11.52 0,0 -22,1.83 -22,1.83 0,0 -20,1 -20,1 -16.29,0.03 -45.11,0.96 -60,-1 0,0 13.19,-29 13.19,-29 0,0 4.16,-14 4.16,-14 0,0 -2.35,-9 -2.35,-9 0,0 -26.94,42 -26.94,42 0,0 -13.94,23 -13.94,23 0,0 -13.55,18 -13.55,18 -4.77,5.73 -10.46,11.77 -14.48,18 -13.4,20.78 -25.15,59.46 -19.19,84 3.06,12.61 9.32,17.32 19.1,24.88 3.03,2.34 12.38,9.18 13.77,12.19 1.61,3.51 -0.91,5.06 -3.79,6.22 -4.98,1.99 -10.66,2.68 -15.98,2.71 0,0 -5,0 -5,0 -6.02,-0.07 -18.01,-2.15 -22.83,-5.7 0,0 -10.17,-10.26 -10.17,-10.26 -5.1,-4.89 -8.35,-6.15 -11.17,-13.04 0,0 -10.71,-52 -10.71,-52 0,0 -13.95,-55 -13.95,-55 -1.01,-10.1 3.16,-19.79 6.83,-29 0,0 17.32,-43 17.32,-43 3.84,-10.39 8.72,-22.11 3.68,-33 -6.71,19.23 -17.78,36.52 -27.99,54 -1.76,3.02 -7.83,16.74 -9.44,17.83 -2.04,1.38 -12.48,2.17 -15.57,2.59 0,0 -44,4.75 -44,4.75 0,0 -27,1.92 -27,1.92 0,0 -12,0.91 -12,0.91 0,0 -48,0 -48,0 -23.81,-0.04 -67.39,-7.96 -91,-13.87 -13.2,-3.31 -30.7,-8.81 -43,-14.44 -6.54,-2.99 -20.61,-11.4 -27,-11.56 -7.05,-0.17 -21.5,9.71 -28,13.44 -19.25,11.04 -28.78,15.23 -50,21.43 1.78,-9.85 15.69,-38.15 20.42,-49 4.14,-9.48 6.81,-11.04 6.57,-22 0,0 -0.99,-9 -0.99,-9 -4.51,3.98 -7.35,10.81 -10.69,16 -8.94,13.88 -12.61,18.47 -19.61,34 -15.12,33.53 -27.22,79.29 -29.79,116 0,0 -0.91,12 -0.91,12 0,0 0,21 0,21 0.05,4.08 0.76,11.54 2.85,15 0,0 22.03,22 22.03,22 2.01,2.59 6.17,9.07 2.52,11.98 -1.57,1.25 -5.42,1.02 -7.4,1.02 0,0 -9,0 -9,0 -13.7,-0.16 -39.04,-3.06 -46.47,-16 -3.32,-5.8 -3.43,-14.4 -4.82,-21 -1.13,-5.39 -3.46,-10.14 -5.97,-15 0,0 -27.940003,-54 -27.940003,-54 -3.49,-8.71 -7.13,-18.47 -6.76,-28 0,0 1.79,-13 1.79,-13 0,0 1.17,-20 1.17,-20 0,0 1,-13 1,-13 0,0 0,-19 0,-19 -0.07,-9.84 -5.09,-11.02 -12.000003,-18 -7.2,-7.27 -16.36,-18.57 -22.28,-27 -17.16,-24.44 -29.36,-52.73 -29.72,-83 0,0 0,-7 0,-7 0,0 1.04,-12 1.04,-12 0,0 0,-9 0,-9 3.37,-33.99 11.95,-64.9 28.27,-95 4.44,-8.19 11.64,-18.74 17.49,-26 0,0 11.400003,-14 11.400003,-14 2.83,-6.26 -7.090003,-12.91 -12.440003,-14 1.39,4.38 0.95,6.65 0,11 -6.46,22.66 -34.96,22.13 -44.55,11.9 -3.78,-4.03 -5.62,-10.47 -6.03,-15.9 -0.67,-8.86 3.35,-18.15 10.82,-23.039998 5.49,-3.59 10.7,-4.77 17,-5.96 -4.57,-9.64 -13.15,-11.91 -23,-11.98 8.2,-10.25 27.2,-8.92 35.91,0 6.4,6.6 6.99,12.37 10.48,15.26 0,0 10.610003,5.03 10.610003,5.03 6.25,3.439998 11.62,8.389998 15,14.689998 z m -42.310003,-8.69 c -5.22,-1 -13.58,1.87 -17.04,6.02 -4.45,5.34 -1.65,13.59 4.37,15.93 13.95,5.43 18.8,-16.31 12.67,-21.95 z m 209.310006,327.69 c 0.08,4 -3.03,9.84 -4.28,14 -2.46,8.18 -3.76,16.5 -4.4,25 -0.9,12.08 4.34,23.18 8.82,34 0,0 10.17,27 10.17,27 3.86,11.1 4.09,20.83 10.14,31 0,0 15.88,24 15.88,24 3.82,5.73 7.37,10.08 8.67,17 -10.55,1.42 -24.73,5.05 -35,1.39 -9.3,-3.32 -16.46,-17.18 -23.09,-24.39 -7.2,-7.83 -19.69,-18.23 -24.56,-27 -4.37,-7.85 -7.9,-26.61 -10.24,-36 0,0 -8.64,-28 -8.64,-28 0,0 -7.47,-35 -7.47,-35 0,0 16,-4.72 16,-4.72 14.56,-4.37 34.96,-10.89 48,-18.28 z m 247,28 c 22.95,0 49.33,-5.73 72,-10 0,0 -1.7,27 -1.7,27 1.17,11.06 7.54,22.55 7.7,36 0.13,12.11 -4.48,26.58 -6.57,39 0,0 -1.6,15 -1.6,15 -0.34,3.53 -0.96,5.15 -0.74,9 0.28,4.99 1.43,12.27 2.98,17 0.75,2.28 2.55,6.06 0.92,8.28 -2.07,2.82 -9.77,2.71 -12.99,2.72 0,0 -5,0 -5,0 -7.29,-0.09 -16.59,-0.91 -19.06,-9 0,0 -7.86,-57 -7.86,-57 0,0 -20.5,-55 -20.5,-55 -2.37,-6.33 -6.61,-16.73 -7.58,-23 z" style="fill:#ffaec5;fill-opacity:1;stroke:#ffaec5;stroke-opacity:1" /><path id="Auswahl #1" fill="none" stroke="black" stroke-width="1" d="m 142,165.42 c 14.47,-1.76 31.78,-0.1 46,2.92 13.12,2.79 17.27,-0.29 16.99,12.66 0,0 -0.97,10 -0.97,10 0,0 0,18 0,18 -0.03,4.49 -0.18,16.05 -7.92,13.36 -4.71,-1.64 -4.78,-8.32 -5.56,-12.36 -1.32,-6.85 -3.33,-11.05 -8.56,-15.83 -6.97,-6.38 -13.01,-7.77 -21.98,-9.25 -24.91,-4.11 -48.86,5.81 -49.96,34.08 -0.92,23.71 23.04,41.54 39.96,54.65 28.7,22.24 60.53,47.65 61,87.35 0.09,8.25 -0.58,13 -2.63,21 -9.82,38.39 -42.54,56.57 -80.37,57 -12.6,0.14 -27.08,-1.94 -39,-6 -4.89,-1.67 -11.3,-3.57 -14.26,-8.04 C 70.73,418.91 72.92,410.63 73,404 c 0,0 0,-11 0,-11 0.04,-3.21 1.17,-18.8 2.31,-20.94 2.05,-3.84 6.71,-5.25 9.68,-1.63 3.08,3.75 1.33,10.26 2.68,16.57 2.22,10.39 8.27,18.94 17.33,24.53 17.31,10.69 46.98,10.13 61.83,-4.7 C 177.07,396.6 179.16,386.79 179,373 178.78,354.68 167.14,343.09 155,331 128,304.13 93.46,288.55 82.73,248 80.53,239.65 80.9,233.51 81,225 c 0.11,-9.17 3.28,-20.18 8.07,-28 4.94,-8.07 10.03,-13.94 17.93,-19.25 11.31,-7.61 21.79,-10.33 35,-12.33 z M 618,410 c 4.92,1.44 12.86,6.18 18,8.75 0,0 41,21 41,21 40.28,20.14 71.97,34.03 117,40.52 0,0 25,2.73 25,2.73 20.55,0.24 44.63,-3.8 64,-10.69 4.68,-1.67 16.94,-8.06 18.46,0.73 0.69,3.95 -2.44,6.44 -5.48,8.16 -4.78,2.71 -16.46,6.96 -21.98,8.8 -36.79,12.27 -59.61,14.45 -98,14 -11.19,-0.13 -32,-4.44 -43,-7.58 -32.66,-9.32 -59.33,-22.65 -89,-38.73 0,0 -36,-19.99 -36,-19.99 0,0 -17,-8.9 -17,-8.9 -3.75,-0.87 -10.21,2.58 -14,3.85 -5.61,1.86 -19.08,4.58 -25,5.18 -29.83,3.03 -61.84,-2.01 -88,-17.25 -37.56,-21.89 -59.67,-62.94 -63.08,-105.58 0,0 -0.92,-10 -0.92,-10 -0.27,-23.28 5.37,-46.18 15.75,-67 4.99,-10.01 10.91,-19.66 18.42,-28 14.77,-16.41 32.86,-29.99 53.83,-37.31 20.27,-7.07 38.86,-7.93 60,-7.69 14.72,0.18 32.14,4.49 46,9.34 10.15,3.56 19.1,8.33 28,14.33 52.94,35.68 65.78,107.71 41.57,164.33 -6.26,14.66 -20.18,33.93 -31.57,44.96 0,0 -14,12.04 -14,12.04 z M 230,169.48 c 9.89,-1.45 15.72,0.51 25,0.52 0,0 34,0 34,0 0,0 16,-1 16,-1 16.7,-0.03 38.65,1.09 54,7.86 10.54,4.65 18.27,9.97 25.48,19.14 19.08,24.26 14.88,62.99 -2.64,87 -15.55,21.32 -41.54,33.96 -67.84,34 -4.83,0.01 -21.01,1.46 -18.16,-7.89 1.02,-3.33 5.14,-4.36 8.16,-4.81 10.09,-1.51 13.83,0.6 26,-4.22 7.56,-3 12.27,-6.36 18,-12.08 12.62,-12.63 15.2,-23.79 15,-41 -0.27,-23.15 -14,-47.57 -36,-56.53 -9.03,-3.67 -19.42,-3.58 -29,-3.47 -3.05,0.04 -7.06,0.02 -9.26,2.51 -2.06,2.33 -1.74,6.55 -1.74,9.49 0,0 0,159 0,159 0,0 1,15 1,15 0,0 0,18 0,18 0.01,8.52 0.28,24.46 9,28.57 5.43,2.56 19.05,0.35 21.96,5.57 4.43,7.94 -7.38,8.85 -11.96,8.86 0,0 -10,0 -10,0 0,0 -15,-1 -15,-1 0,0 -21,0 -21,0 0,0 -22,1 -22,1 -4.36,-0.06 -12.31,-1.59 -10.34,-7.94 1.36,-4.4 6.71,-3.97 10.34,-4.68 5.51,-1.08 8.32,-2.81 10.06,-8.38 2,-6.37 1.53,-9.93 2.11,-16 0,0 0.83,-56 0.83,-56 0,0 0,-137 0,-137 -0.1,-7.99 -0.6,-17.04 -9,-20.52 -6.44,-2.67 -17.35,-0.12 -19.34,-6.54 -1.42,-4.56 2.89,-6.45 6.34,-7.46 z M 728,324 c 0,0 0,42 0,42 0,0 1,17 1,17 0.01,8.81 -0.19,20.59 2.44,29 3.39,10.83 13.53,8.57 22.56,9.97 3.65,0.57 7.73,2.42 6.34,6.99 -1.49,4.93 -7.17,5.02 -11.34,5.04 0,0 -12,0 -12,0 0,0 -13,-1 -13,-1 0,0 -24,0 -24,0 0,0 -19,1 -19,1 -4.36,-0.06 -13.2,-1.24 -11.16,-7.89 2.16,-7.03 14.08,-1.46 19.07,-9.22 2.41,-3.73 2.81,-9.58 3.37,-13.89 0.88,-6.75 0.69,-11.32 0.72,-18 0,0 1,-16 1,-16 0,0 0,-152 0,-152 0,0 -0.91,-12 -0.91,-12 -0.44,-6.48 0.85,-13.61 -4.31,-18.78 -5.77,-5.76 -13.7,-3.14 -19.74,-5.37 -2.88,-1.06 -5.2,-3.45 -4.2,-6.74 1.61,-5.26 10.79,-5.1 15.16,-5.11 0,0 5,0 5,0 0,0 14,1 14,1 0,0 30,0 30,0 0,0 15,-1 15,-1 31.34,-0.05 65.06,1.46 85.52,29 3.94,5.3 6.45,9.7 8.45,16 3.25,10.21 3.05,14.65 3.03,25 -0.03,17.72 -8.4,36.98 -18.89,51 0,0 -13.28,16 -13.28,16 -1.8,2.01 -5.5,5.11 -5.25,8 0.18,2.07 3.72,6.26 5.07,8 0,0 14.95,19 14.95,19 0,0 39.33,48 39.33,48 7.82,8.63 14.22,16.01 24.07,22.64 14.57,9.81 21.27,7.45 35.98,10.57 3.26,0.69 6.33,2.93 5.18,6.69 -1.62,5.25 -9.81,5.09 -14.16,5.1 0,0 -26,0 -26,0 -9.82,-0.12 -23.22,-1.92 -32,-6.37 -12.36,-6.27 -21.47,-17.03 -30,-27.63 0,0 -27.63,-36 -27.63,-36 0,0 -18.79,-26 -18.79,-26 -7.65,-10.59 -7.32,-12.98 -17.58,-13 0,0 -34,-1 -34,-1 z M 520,184.29 c -13.22,2.02 -24.41,5.25 -36,12.16 -37.06,22.11 -44.06,62.01 -44,101.55 0.01,6.67 0.95,13.4 1.87,20 6.65,47.78 34.17,89.42 84.13,98.74 9.49,1.77 22.44,2.23 32,0.97 6.45,-0.85 17.01,-4.02 23,-6.58 13.05,-5.59 22.22,-12.94 30.99,-24.13 21.35,-27.25 23.4,-57.76 23.01,-91 -0.07,-5.99 -1.57,-15.93 -2.59,-22 -6.4,-38.1 -27.63,-71.86 -65.41,-85.3 -14.02,-4.99 -32.23,-5.79 -47,-4.41 z M 728,189 c 0,0 0,105 0,105 0,2.14 -0.23,5.71 1.02,7.49 1.37,1.95 4.78,2.75 6.98,3.27 5.42,1.29 14.4,2.23 20,2.24 11.55,0.02 22.25,1.06 32,-6.53 7.82,-6.09 13.24,-17.88 15.19,-27.47 4.32,-21.23 2.52,-50.61 -11.66,-68 -13.63,-16.73 -29.99,-17.03 -49.53,-17 0,0 -14,1 -14,1 z" style="fill:#ffc400;fill-opacity:1;stroke:#917000;stroke-opacity:1" /></svg>
